{"title":"Derek Trucks Band Already Free Flac","uid":6925912,"size":384220553,"categoryP":"audio","categoryS":"flac","magnet":"?xt=urn:btih:f8441a093d7f43dedfe59a61293be866cec27320&amp;dn=Derek+Trucks+Band+Already+Free+Flac&amp;tr=udp%3A%2F%2Ftracker.openbittorrent.com%3A80&amp;tr=udp%3A%2F%2Fopen.demonii.com%3A1337&amp;tr=udp%3A%2F%2Ftracker.coppersurfer.tk%3A6969&amp;tr=udp%3A%2F%2Fexodus.desync.com%3A6969","seeders":1,"leechers":2,"uploader":"wisertime","files":13,"time":1325498065,"description":"Exact Audio Copy V0.99 prebeta 4 from 23. January 2008\n\nEAC extraction logfile from 20. January 2009, 15:54\n\nThe Derek Trucks Band / Already Free\n\nUsed drive  : HL-DT-STRW/DVD GCC-4241N   Adapter: 1  ID: 0\n\nRead mode               : Secure\nUtilize accurate stream : Yes\nDefeat audio cache      : Yes\nMake use of C2 pointers : No\n\nRead offset correction                      : 102\nOverread into Lead-In and Lead-Out          : No\nFill up missing offset samples with silence : Yes\nDelete leading and trailing silent blocks   : No\nNull samples used in CRC calculations       : Yes\nUsed interface                              : Native Win32 interface for Win NT &amp; 2000\nGap handling                                : Appended to previous track\n\nUsed output format              : User Defined Encoder\nSelected bitrate                : 1024 kBit/s\nQuality                         : High\nAdd ID3 tag                     : No\nCommand line compressor         : C:\\Program Files\\FLAC\\flac.exe\nAdditional command line options : -8 -V -T &quot;ARTIST=%a&quot; -T &quot;TITLE=%t&quot; -T &quot;ALBUM=%g&quot; -T &quot;DATE=%y&quot; -T &quot;TRACKNUMBER=%n&quot; -T &quot;GENRE=%m&quot; -T &quot;COMMENT=EAC FLAC -8&quot; %s\n\n\nTOC of the extracted CD\n\n     Track |   Start  |  Length  | Start sector | End sector \n    ---------------------------------------------------------\n        1  |  0:00.00 |  5:02.23 |         0    |    22672   \n        2  |  5:02.23 |  5:01.49 |     22673    |    45296   \n        3  | 10:03.72 |  5:03.69 |     45297    |    68090   \n        4  | 15:07.66 |  4:38.68 |     68091    |    89008   \n        5  | 19:46.59 |  4:16.11 |     89009    |   108219   \n        6  | 24:02.70 |  3:36.64 |    108220    |   124483   \n        7  | 27:39.59 |  5:18.56 |    124484    |   148389   \n        8  | 32:58.40 |  5:07.06 |    148390    |   171420   \n        9  | 38:05.46 |  5:13.60 |    171421    |   194955   \n       10  | 43:19.31 |  4:20.03 |    194956    |   214458   \n       11  | 47:39.34 |  4:45.22 |    214459    |   235855   \n       12  | 52:24.56 |  2:46.36 |    235856    |   248341   \n\n\nTrack  1\n\n     Filename P:\\Derek Trucks\\(2009) Derek Trucks Band - Already Free\\The Derek Trucks Band - Already Free (2009)\\The Derek Trucks Band - Already Free (2009) [FLAC]\\01 - Down In The Flood.wav\n\n     Pre-gap length  0:00:02.00\n\n     Peak level 100.0 %\n     Track quality 100.0 %\n     Test CRC CCE37B10\n     Copy CRC CCE37B10\n     Track not present in AccurateRip database\n     Copy OK\n\nTrack  2\n\n     Filename P:\\Derek Trucks\\(2009) Derek Trucks Band - Already Free\\The Derek Trucks Band - Already Free (2009)\\The Derek Trucks Band - Already Free (2009) [FLAC]\\02 - Something To Make You Happy.wav\n\n     Peak level 100.0 %\n     Track quality 100.0 %\n     Test CRC 64128100\n     Copy CRC 64128100\n     Track not present in AccurateRip database\n     Copy OK\n\nTrack  3\n\n     Filename P:\\Derek Trucks\\(2009) Derek Trucks Band - Already Free\\The Derek Trucks Band - Already Free (2009)\\The Derek Trucks Band - Already Free (2009) [FLAC]\\03 - Maybe This Time.wav\n\n     Peak level 100.0 %\n     Track quality 100.0 %\n     Test CRC DD2C3EA7\n     Copy CRC DD2C3EA7\n     Track not present in AccurateRip database\n     Copy OK\n\nTrack  4\n\n     Filename P:\\Derek Trucks\\(2009) Derek Trucks Band - Already Free\\The Derek Trucks Band - Already Free (2009)\\The Derek Trucks Band - Already Free (2009) [FLAC]\\04 - Sweet Inspiration.wav\n\n     Peak level 100.0 %\n     Track quality 100.0 %\n     Test CRC 8A08DE5D\n     Copy CRC 8A08DE5D\n     Track not present in AccurateRip database\n     Copy OK\n\nTrack  5\n\n     Filename P:\\Derek Trucks\\(2009) Derek Trucks Band - Already Free\\The Derek Trucks Band - Already Free (2009)\\The Derek Trucks Band - Already Free (2009) [FLAC]\\05 - Don't Miss Me.wav\n\n     Peak level 100.0 %\n     Track quality 100.0 %\n     Test CRC EDB7130E\n     Copy CRC EDB7130E\n     Track not present in AccurateRip database\n     Copy OK\n\nTrack  6\n\n     Filename P:\\Derek Trucks\\(2009) Derek Trucks Band - Already Free\\The Derek Trucks Band - Already Free (2009)\\The Derek Trucks Band - Already Free (2009) [FLAC]\\06 - Get What You Deserve.wav\n\n     Peak level 100.0 %\n     Track quality 100.0 %\n     Test CRC 353434D4\n     Copy CRC 353434D4\n     Track not present in AccurateRip database\n     Copy OK\n\nTrack  7\n\n     Filename P:\\Derek Trucks\\(2009) Derek Trucks Band - Already Free\\The Derek Trucks Band - Already Free (2009)\\The Derek Trucks Band - Already Free (2009) [FLAC]\\07 - Our Love.wav\n\n     Pre-gap length  0:00:02.72\n\n     Peak level 100.0 %\n     Track quality 100.0 %\n     Test CRC 3C25AF71\n     Copy CRC 3C25AF71\n     Track not present in AccurateRip database\n     Copy OK\n\nTrack  8\n\n     Filename P:\\Derek Trucks\\(2009) Derek Trucks Band - Already Free\\The Derek Trucks Band - Already Free (2009)\\The Derek Trucks Band - Already Free (2009) [FLAC]\\08 - Down Don't Bother Me.wav\n\n     Peak level 100.0 %\n     Track quality 100.0 %\n     Test CRC 8CEA0723\n     Copy CRC 8CEA0723\n     Track not present in AccurateRip database\n     Copy OK\n\nTrack  9\n\n     Filename P:\\Derek Trucks\\(2009) Derek Trucks Band - Already Free\\The Derek Trucks Band - Already Free (2009)\\The Derek Trucks Band - Already Free (2009) [FLAC]\\09 - Days Is Almost Gone.wav\n\n     Peak level 100.0 %\n     Track quality 99.9 %\n     Test CRC 46D3C3B6\n     Copy CRC 46D3C3B6\n     Track not present in AccurateRip database\n     Copy OK\n\nTrack 10\n\n     Filename P:\\Derek Trucks\\(2009) Derek Trucks Band - Already Free\\The Derek Trucks Band - Already Free (2009)\\The Derek Trucks Band - Already Free (2009) [FLAC]\\10 - Back Where I Started.wav\n\n     Peak level 100.0 %\n     Track quality 100.0 %\n     Test CRC C2745A4B\n     Copy CRC C2745A4B\n     Track not present in AccurateRip database\n     Copy OK\n\nTrack 11\n\n     Filename P:\\Derek Trucks\\(2009) Derek Trucks Band - Already Free\\The Derek Trucks Band - Already Free (2009)\\The Derek Trucks Band - Already Free (2009) [FLAC]\\11 - I Know.wav\n\n     Peak level 100.0 %\n     Track quality 100.0 %\n     Test CRC 65F393A1\n     Copy CRC 65F393A1\n     Track not present in AccurateRip database\n     Copy OK\n\nTrack 12\n\n     Filename P:\\Derek Trucks\\(2009) Derek Trucks Band - Already Free\\The Derek Trucks Band - Already Free (2009)\\The Derek Trucks Band - Already Free (2009) [FLAC]\\12 - Already Free.wav\n\n     Pre-gap length  0:00:05.13\n\n     Peak level 100.0 %\n     Track quality 100.0 %\n     Test CRC 2692E85D\n     Copy CRC 2692E85D\n     Track not present in AccurateRip database\n     Copy OK\n\n\nNone of the tracks are present in the AccurateRip database\n\nNo errors occurred\n\nEnd of status report\n","torrent":{"xt":"urn:btih:f8441a093d7f43dedfe59a61293be866cec27320","amp;dn":"Derek+Trucks+Band+Already+Free+Flac","amp;tr":["udp%3A%2F%2Ftracker.openbittorrent.com%3A80","udp%3A%2F%2Fopen.demonii.com%3A1337","udp%3A%2F%2Ftracker.coppersurfer.tk%3A6969","udp%3A%2F%2Fexodus.desync.com%3A6969"],"infoHash":"f8441a093d7f43dedfe59a61293be866cec27320","infoHashBuffer":{"type":"Buffer","data":[248,68,26,9,61,127,67,222,223,229,154,97,41,59,232,102,206,194,115,32]},"announce":[],"urlList":[]}}